<svg width="79" height="28" viewBox="0 0 79 28" fill="none" xmlns="http://www.w3.org/2000/svg">
<path d="M44.7071 27.5382H37.3976C36.5082 23.935 35.6152 20.3177 34.7187 16.6862H28.1104L25.5834 27.5625C23.5177 27.5625 21.4748 27.5746 19.4319 27.5382C19.2801 27.5382 19.0585 27.1936 19.0039 26.9751C18.1676 23.5708 17.3525 20.1603 16.5072 16.6467H13.8966C12.86 16.6467 11.8188 16.6953 10.7867 16.6285C10.1083 16.586 9.88668 16.8532 9.74098 17.4663C9.00335 20.5853 8.22322 23.6891 7.45675 26.8021C7.39756 27.0434 7.32774 27.2832 7.25944 27.5382H0C0.151776 26.9007 0.282303 26.3027 0.428008 25.7078C2.43044 17.5503 4.43338 9.39286 6.43682 1.23541C6.54458 0.793738 6.5977 0.435547 7.26703 0.435547C17.3601 0.46489 27.4522 0.471973 37.5433 0.456796C37.6951 0.456796 37.8468 0.470455 38.0533 0.48108C40.2692 9.48898 42.4821 18.4878 44.7071 27.5382Z" fill="#B10F00"/>
<path d="M78.9235 27.5397H49.0707C48.497 25.2084 47.9248 22.8908 47.3329 20.4851H58.8754C57.2271 13.7705 55.6016 7.1516 53.9655 0.485596H61.2674C62.8995 7.11719 64.5397 13.7786 66.188 20.4699H67.9486C70.8065 20.4699 73.6629 20.4806 76.5194 20.4578C77.0005 20.4578 77.2236 20.561 77.3405 21.0649C77.8292 23.2019 78.3726 25.3268 78.9235 27.5397Z" fill="#B10F00"/>
<path d="M42.4184 0.48877H49.7264L53.6862 16.6165C51.3079 16.6165 49.0358 16.6317 46.7652 16.5876C46.577 16.5876 46.2932 16.2006 46.2294 15.9487C45.2808 12.1831 44.3626 8.40844 43.4368 4.63681C43.1044 3.26779 42.7644 1.89877 42.4184 0.48877Z" fill="#B10F00"/>
</svg>
